<?xml version="1.0" standalone="no"?>
<!DOCTYPE svg PUBLIC "-//W3C//DTD SVG 20010904//EN"
 "http://www.w3.org/TR/2001/REC-SVG-20010904/DTD/svg10.dtd">
<svg version="1.0" xmlns="http://www.w3.org/2000/svg"
 width="512.000000pt" height="512.000000pt" viewBox="0 0 512.000000 512.000000"
 preserveAspectRatio="xMidYMid meet">
<metadata>
Created by potrace 1.11, written by Peter Selinger 2001-2013
</metadata>
<g transform="translate(0.000000,512.000000) scale(0.100000,-0.100000)"
fill="#000000" stroke="none">
<path d="M2409 4547 c-139 -40 -265 -170 -360 -372 -47 -100 -121 -317 -111
-326 4 -4 32 -14 62 -24 30 -10 101 -35 158 -57 57 -22 105 -38 106 -37 2 2
20 56 40 119 45 139 113 274 161 320 l35 34 36 -35 c44 -42 121 -199 165 -334
17 -55 33 -101 34 -103 1 -1 42 13 91 31 49 19 121 44 159 57 39 12 73 25 77
29 9 8 -60 214 -105 313 -113 246 -263 382 -433 393 -40 3 -88 0 -115 -8z"/>
<path d="M1102 3775 c-193 -42 -314 -168 -329 -341 -14 -166 87 -374 294 -605
76 -84 79 -86 99 -70 12 9 61 50 110 91 49 41 102 85 118 97 l28 23 -72 77
c-121 129 -220 282 -220 341 0 33 40 45 150 44 98 0 222 -18 346 -51 59 -15
75 -16 95 -5 72 37 233 55 320 35 32 -7 46 -3 144 52 l107 60 -92 39 c-238 98
-526 183 -725 213 -122 18 -288 18 -373 0z"/>
<path d="M3570 3783 c-342 -37 -862 -232 -1359 -509 l-116 -65 -49 15 c-205
67 -424 -73 -443 -283 l-6 -60 -141 -113 c-171 -136 -408 -370 -499 -493 -82
-110 -151 -246 -173 -340 -55 -237 74 -427 326 -481 105 -22 314 -13 476 20
170 36 457 131 668 221 l38 16 -197 113 -198 113 -131 -43 c-175 -56 -318 -85
-452 -91 -185 -9 -213 12 -158 121 66 132 295 379 529 569 99 81 124 97 145
92 14 -3 50 -8 81 -11 158 -18 319 103 352 264 l13 63 90 51 c524 294 1036
477 1343 480 121 1 161 -10 161 -44 0 -57 -103 -215 -220 -341 -40 -43 -71
-79 -69 -81 33 -24 177 -143 217 -179 l53 -47 53 57 c227 245 337 463 323 636
-15 175 -137 301 -332 342 -64 13 -235 18 -325 8z"/>
<path d="M2945 3041 c-71 -32 -159 -71 -194 -87 l-65 -30 125 -78 c594 -376
1059 -812 1059 -993 0 -26 -5 -33 -31 -42 -41 -14 -168 -14 -264 0 l-76 12
-24 51 c-92 194 -332 258 -506 134 -13 -9 -29 -6 -75 12 -121 47 -465 221
-615 312 l-156 93 -44 -13 c-24 -8 -87 -15 -141 -16 l-96 -2 -66 -54 c-36 -29
-66 -57 -66 -61 0 -11 288 -197 439 -283 155 -89 441 -233 588 -296 98 -43
102 -46 123 -92 33 -72 102 -143 176 -179 107 -53 222 -42 324 31 30 21 31 21
128 4 131 -23 345 -24 429 -1 136 36 226 105 279 213 26 53 29 69 29 154 -1
77 -6 109 -27 168 -105 292 -481 675 -1010 1030 -59 40 -109 72 -110 71 -2 0
-61 -26 -133 -58z"/>
<path d="M2170 1470 c-41 -17 -111 -42 -155 -56 -44 -15 -81 -28 -83 -29 -5
-4 67 -214 99 -287 47 -108 107 -204 168 -271 102 -109 182 -149 304 -149 66
0 88 5 142 31 113 52 208 158 290 321 36 71 85 192 85 208 0 4 -22 15 -49 25
-65 23 -160 95 -207 157 l-39 51 -32 -97 c-45 -133 -104 -251 -152 -304 l-41
-45 -41 45 c-51 55 -117 192 -160 328 -17 56 -37 102 -43 102 -6 -1 -45 -14
-86 -30z"/>
</g>
</svg>
